<svg width="46" height="34" viewBox="0 0 46 34" fill="none" xmlns="http://www.w3.org/2000/svg">
<mask id="mask0_84_16" style="mask-type:alpha" maskUnits="userSpaceOnUse" x="0" y="0" width="46" height="34">
<rect y="0.210266" width="45.9701" height="33.5795" fill="#D9D9D9"/>
</mask>
<g mask="url(#mask0_84_16)">
<path d="M22.9835 0.210876C8.59318 0.210876 0 6.48886 0 17.0022C0 27.5124 8.59318 33.7904 22.9835 33.7904C37.377 33.7904 45.9701 27.5124 45.9701 17.0022C45.9701 6.48886 37.377 0.210876 22.9835 0.210876ZM22.9835 32.2592C9.3496 32.2592 1.53121 26.6978 1.53121 17.0022C1.53121 7.30653 9.3496 1.74209 22.9835 1.74209C36.6175 1.74209 44.4389 7.30653 44.4389 17.0022C44.4389 26.6978 36.6175 32.2592 22.9835 32.2592Z" fill="#FAEFD9"/>
<path d="M34.9454 16.5214C34.9179 16.4877 34.8964 16.4632 34.8627 16.4356C34.8291 16.4081 34.8107 16.3652 34.7709 16.3438L25.4243 10.7763C25.063 10.5588 24.5914 10.6752 24.377 11.0427C24.1596 11.4041 24.2759 11.8757 24.6404 12.09L31.5982 16.2366H12.066C11.6434 16.2366 11.3004 16.5796 11.3004 17.0022C11.3004 17.4217 11.6434 17.7678 12.066 17.7678H31.5982L24.6404 21.9113C24.2759 22.1287 24.1596 22.6003 24.377 22.9617C24.5179 23.2005 24.772 23.3353 25.0323 23.3353C25.1671 23.3353 25.3018 23.2985 25.4243 23.2281L34.7709 17.6606C34.8107 17.6361 34.8291 17.5963 34.8627 17.5657C34.8964 17.5381 34.9179 17.5136 34.9454 17.483C35.0618 17.3452 35.1445 17.1859 35.1445 17.0022C35.1445 16.8184 35.0618 16.6592 34.9454 16.5214Z" fill="#FAEFD9"/>
</g>
</svg>
