<svg width="46" height="34" viewBox="0 0 46 34" fill="none" xmlns="http://www.w3.org/2000/svg">
<mask id="mask0_84_19" style="mask-type:alpha" maskUnits="userSpaceOnUse" x="0" y="0" width="46" height="34">
<rect y="0.210205" width="45.9701" height="33.5795" fill="#D9D9D9"/>
</mask>
<g mask="url(#mask0_84_19)">
<path d="M22.9866 0.210815C37.3769 0.210815 45.9701 6.48879 45.9701 17.0021C45.9701 27.5124 37.3769 33.7903 22.9866 33.7903C8.59317 33.7903 0 27.5124 0 17.0021C0 6.48879 8.59317 0.210815 22.9866 0.210815ZM22.9866 32.2591C36.6205 32.2591 44.4389 26.6978 44.4389 17.0021C44.4389 7.30646 36.6205 1.74203 22.9866 1.74203C9.35265 1.74203 1.53121 7.30646 1.53121 17.0021C1.53121 26.6978 9.35265 32.2591 22.9866 32.2591Z" fill="#FAEFD9"/>
<path d="M11.0247 16.5213C11.0523 16.4876 11.0737 16.4631 11.1074 16.4356C11.1411 16.408 11.1595 16.3651 11.1993 16.3437L20.5458 10.7762C20.9072 10.5588 21.3788 10.6751 21.5932 11.0426C21.8106 11.404 21.6942 11.8756 21.3298 12.09L14.372 16.2365H33.9041C34.3267 16.2365 34.6697 16.5795 34.6697 17.0021C34.6697 17.4217 34.3267 17.7677 33.9041 17.7677H14.372L21.3298 21.9112C21.6942 22.1286 21.8106 22.6002 21.5932 22.9616C21.4523 23.2005 21.1981 23.3352 20.9378 23.3352C20.8031 23.3352 20.6683 23.2985 20.5458 23.228L11.1993 17.6605C11.1595 17.636 11.1411 17.5962 11.1074 17.5656C11.0737 17.538 11.0523 17.5135 11.0247 17.4829C10.9084 17.3451 10.8257 17.1859 10.8257 17.0021C10.8257 16.8184 10.9084 16.6591 11.0247 16.5213Z" fill="#FAEFD9"/>
</g>
</svg>
